# xmcd CD database file
#
# Track frame offsets:
#	150
#	14520
#	37077
#	51460
#	65830
#
# Disc length: 1177 seconds
#
# Revision: 0
# Processed by: cddbd v1.5.2PL0 Copyright (c) Steve Scherf et al.
# Submitted via: CD2WAV32(JP) R3.22
#
DISCID=4a049705
DTITLE=酒井香奈子 - そよかぜらいふ
DYEAR=2006
DGENRE=Anime
TTITLE0=そよかぜらいふ
TTITLE1=My Dear Love
TTITLE2=そよかぜらいふ -Another Story Mix-
TTITLE3=そよかぜらいふ [Original Karaoke]
TTITLE4=My Dear Love [Original Karaoke]
EXTD=
EXTT0=
EXTT1=
EXTT2=
EXTT3=
EXTT4=
PLAYORDER=
